<svg id="Layer_1" data-name="Layer 1" xmlns="http://www.w3.org/2000/svg" viewBox="0 0 392.82 227.63"><defs><style>.cls-1{fill:none}.cls-2{clip-path:url(#clip-path)}.cls-3{fill:url(#linear-gradient)}.cls-4{fill:#2c3283}.cls-5{clip-path:url(#clip-path-2)}.cls-6{fill:url(#linear-gradient-2)}.cls-7{clip-path:url(#clip-path-3)}.cls-8{fill:url(#linear-gradient-3)}.cls-9{fill:#ccccce}</style><clipPath id="clip-path" transform="translate(1.12 .81)"><path class="cls-1" d="M99.32.41a298.14 298.14 0 0 1-90.4 13.84A8.87 8.87 0 0 0 0 22.85v.41c0 36 .08 68.92 7 98.44h18.41c-7-26.44-7.54-56.43-7.57-90.35a313.46 313.46 0 0 0 84.28-13.73A315.21 315.21 0 0 0 184.83 31c0 6.87 0 13.57-.14 20.13h17.21c.14-9.3.15-18.81.15-28.57a8.8 8.8 0 0 0-6-8.19 9 9 0 0 0-2.8-.47A298.74 298.74 0 0 1 104.56.39 8.74 8.74 0 0 0 102 0a8.63 8.63 0 0 0-2.64.41"/></clipPath><linearGradient id="linear-gradient" x1="-114.84" y1="501.36" x2="-113.84" y2="501.36" gradientTransform="scale(165.15 -165.15) rotate(-45 -662.43 111.872)" gradientUnits="userSpaceOnUse"><stop offset="0" stop-color="#d1d2d3"/><stop offset=".21" stop-color="#cdcecf"/><stop offset=".44" stop-color="#c0c1c2"/><stop offset=".68" stop-color="#aaabad"/><stop offset=".92" stop-color="#8c8d90"/><stop offset="1" stop-color="#818285"/></linearGradient><clipPath id="clip-path-2" transform="translate(1.12 .81)"><path class="cls-1" d="M230.71 60.54v49.31h9.84V70.39H250a5 5 0 0 1 4.92 5 4.89 4.89 0 0 1-4.92 4.92h-3.8v9.85l9.21 19.76h10.48l-9.78-21.1A14.81 14.81 0 0 0 250 60.54h-19.29z"/></clipPath><linearGradient id="linear-gradient-2" x1="-115.6" y1="501.31" x2="-114.6" y2="501.31" gradientTransform="matrix(35.17 0 0 -35.17 4297.18 17715.93)" gradientUnits="userSpaceOnUse"><stop offset="0" stop-color="#cfd0d2"/><stop offset="1" stop-color="#aaabae"/></linearGradient><clipPath id="clip-path-3" transform="translate(1.12 .81)"><path class="cls-1" d="M279.8 85.23a15.4 15.4 0 1 1 15.4 15.41 15.4 15.4 0 0 1-15.4-15.41m-10.13 0a25.53 25.53 0 1 0 25.54-25.53 25.58 25.58 0 0 0-25.53 25.53"/></clipPath><linearGradient id="linear-gradient-3" x1="-115.37" y1="501.31" x2="-114.37" y2="501.31" gradientTransform="matrix(51.07 0 0 -51.07 6162.3 25685.81)" gradientUnits="userSpaceOnUse"><stop offset="0" stop-color="#aaabaf"/><stop offset="1" stop-color="#818285"/></linearGradient></defs><title>logo</title><path class="cls-2 cls-3" d="M237.52 46.24c-9.48-4.73-12.22-13.1-17.37-21.74-3.92-6.58-7.69-12.47-14.93-15.7-9.75-4.35-20.52-3.35-30.87-2.57s-19.84.83-30-1.3c-9.84-2.07-19.86-3.79-29.85-5A89 89 0 0 0 99.18-.7c-5 .28-9.61 1.81-14.48 2.87C74.5 4.39 64 4.88 53.59 5c-17.13.15-34.23 1.2-51.34 1.72A142.15 142.15 0 0 0-.34 23.29C-1.29 35.52-1.16 48-1 60.27A287.59 287.59 0 0 0 1.54 97.4c.71 5 1.39 10.07.62 15.09-.21 1.33-.64 2.83-1 4.36A24.72 24.72 0 0 1 5.62 127v.37L101 222.72 260.57 63.17c-5.85-8.27-14.19-12.51-23.05-16.93z" transform="translate(1.12 .81)"/><path class="cls-4" d="M97.1 226a10 10 0 0 0 4.06.86 8.75 8.75 0 0 0 3.79-.88c28-13.77 47.89-29.29 62.07-46.48h-23.7c-10.93 10.5-24.72 20.2-42.17 29.14-45.87-23.27-66.47-52-75.74-86.91H7C16.84 163.41 40.41 198.4 97.1 226z" transform="translate(1.12 .81)"/><path class="cls-5 cls-6" d="M231.83 61.35H267v49.38h-35.17z"/><path class="cls-7 cls-8" d="M270.79 60.5h51.07v51.07h-51.07z"/><path class="cls-9" d="M118.96 61.49h9.85v49.23h-9.85V90.19h-18.22v20.53h-9.85V61.49h9.85v18.85h18.22V61.49zM178.53 61.42l-16.04 31.23v18.07h-9.85V92.65l-16.1-31.23h10.9l10.13 18.57 10.06-18.57h10.9z"/><path class="cls-9" d="M197.66 60.61A24.24 24.24 0 0 1 215 67.79a25 25 0 0 1 7.25 17.44 23.63 23.63 0 0 1-2 9.64 22.55 22.55 0 0 1-5.28 7.81 24.67 24.67 0 0 1-17.37 7.25h-9.92v-.07h-4V60.61h13.93zm0 39.46a14.81 14.81 0 0 0 0-29.61h-4.08v29.61h4.08z" transform="translate(1.12 .81)"/><path class="cls-4" d="M105.75 121.7a14.81 14.81 0 0 1 0 29.61h-6.13V171h-9.84v-49.3h16zm0 19.76a4.94 4.94 0 0 0 4.92-4.92 5 5 0 0 0-4.92-5h-6.13v9.92h6.12zM139.57 131.47v39.46h-9.85v-49.31H149a14.81 14.81 0 0 1 6.12 28.28l9.78 21.1h-10.49l-9.22-19.76v-9.85H149a4.89 4.89 0 0 0 4.93-4.92 5 5 0 0 0-4.93-5h-9.42z" transform="translate(1.12 .81)"/><path class="cls-4" d="M219.75 146.31a25.53 25.53 0 1 1-25.54-25.53 25.58 25.58 0 0 1 25.54 25.53m-40.94 0a15.4 15.4 0 1 0 15.4-15.4 15.4 15.4 0 0 0-15.4 15.4" transform="translate(1.12 .81)"/><path class="cls-4" d="M261.94 122.5v9.85h-13.65v39.46h-9.84v-39.46h-13.72v-9.85h37.21z"/><path class="cls-4" d="M300.34 131.54H267.5v-9.84h32.85v9.84zm-32.85 9.15h27.22v9.85H267.5v-9.85zm0 20.47h32.64V171H267.5v-9.85zM339.52 133.65c-9.57-6.19-24-.42-24 12.8 0 13.86 15.27 19.41 24.55 12.38l6.33 7.25a25.51 25.51 0 1 1-.56-39.74z" transform="translate(1.12 .81)"/><path class="cls-4" d="M392.82 122.5v9.85h-13.65v39.46h-9.84v-39.46h-13.72v-9.85h37.21z"/></svg>